<svg width="25" height="28" viewBox="0 0 25 28" fill="none" xmlns="http://www.w3.org/2000/svg">
<circle cx="12.5" cy="14" r="12" stroke="#3AD09A"/>
<path d="M12.3516 19.75C14.9844 19.75 16.7422 18.3672 16.7422 16.3203V16.3047C16.7422 14.7734 15.6484 13.8047 13.9688 13.6484V13.6016C15.2891 13.3281 16.3203 12.4141 16.3203 11.0078V10.9922C16.3203 9.19531 14.7578 7.97656 12.3359 7.97656C9.96875 7.97656 8.38281 9.28906 8.21875 11.3047L8.21094 11.3984H10.3828L10.3906 11.3281C10.4844 10.3906 11.2266 9.78906 12.3359 9.78906C13.4453 9.78906 14.0938 10.3672 14.0938 11.3047V11.3203C14.0938 12.2344 13.3281 12.8594 12.1406 12.8594H10.8828V14.5391H12.1719C13.5391 14.5391 14.3438 15.1328 14.3438 16.2109V16.2266C14.3438 17.1797 13.5547 17.8516 12.3516 17.8516C11.1328 17.8516 10.3281 17.2266 10.2266 16.3516L10.2188 16.2656H7.96094L7.96875 16.3672C8.125 18.3828 9.80469 19.75 12.3516 19.75Z" fill="#3AD09A"/>
</svg>
