<svg width="160" height="149" viewBox="0 0 160 149" fill="none" xmlns="http://www.w3.org/2000/svg">
<rect x="1" y="1" width="158" height="147" rx="9" fill="#3AD09A"/>
<path d="M108.135 15H51.8652C49.5659 15 47.3608 15.886 45.735 17.463C44.1092 19.0401 43.1958 21.179 43.1958 23.4093V134H116.804V23.4093C116.804 21.179 115.891 19.0401 114.265 17.463C112.639 15.886 110.434 15 108.135 15ZM108.625 126.067H96.3573V114.167H63.6425V126.067H51.3745V23.4093C51.3745 23.3468 51.3872 23.2849 51.4118 23.2272C51.4365 23.1694 51.4727 23.117 51.5182 23.0728C51.5638 23.0286 51.6179 22.9935 51.6774 22.9696C51.737 22.9456 51.8008 22.9333 51.8652 22.9333H108.135C108.199 22.9333 108.263 22.9456 108.322 22.9696C108.382 22.9935 108.436 23.0286 108.482 23.0728C108.527 23.117 108.563 23.1694 108.588 23.2272C108.613 23.2849 108.625 23.3468 108.625 23.4093V126.067Z" fill="white"/>
<path d="M59.5532 34.8328H67.7319V42.7661H59.5532V34.8328Z" fill="white"/>
<path d="M75.9106 34.8328H84.0893V42.7661H75.9106V34.8328Z" fill="white"/>
<path d="M92.2681 34.8328H100.447V42.7661H92.2681V34.8328Z" fill="white"/>
<path d="M59.5532 54.6672H67.7319V62.6006H59.5532V54.6672Z" fill="white"/>
<path d="M75.9106 54.6672H84.0893V62.6006H75.9106V54.6672Z" fill="white"/>
<path d="M92.2681 54.6672H100.447V62.6006H92.2681V54.6672Z" fill="white"/>
<path d="M59.5532 74.5H67.7319V82.4333H59.5532V74.5Z" fill="white"/>
<path d="M75.9106 74.5H84.0893V82.4333H75.9106V74.5Z" fill="white"/>
<path d="M92.2681 74.5H100.447V82.4333H92.2681V74.5Z" fill="white"/>
<path d="M59.5532 94.3328H67.7319V102.266H59.5532V94.3328Z" fill="white"/>
<path d="M75.9106 94.3328H84.0893V102.266H75.9106V94.3328Z" fill="white"/>
<path d="M92.2681 94.3328H100.447V102.266H92.2681V94.3328Z" fill="white"/>
<rect x="1" y="1" width="158" height="147" rx="9" stroke="#3AD09A" stroke-width="2"/>
</svg>
