<svg width="42" height="52" viewBox="0 0 42 52" fill="none" xmlns="http://www.w3.org/2000/svg">
<path d="M20.9997 2.6038e-08C15.519 -0.000274013 10.2598 2.16257 6.36493 6.01845C2.4701 9.87433 0.254513 15.1116 0.199707 20.592C0.199707 34.84 18.5297 50.6999 19.3097 51.3759C19.7806 51.7788 20.38 52.0001 20.9997 52.0001C21.6194 52.0001 22.2187 51.7788 22.6897 51.3759C23.5997 50.6999 41.7997 34.84 41.7997 20.592C41.7449 15.1116 39.5293 9.87433 35.6344 6.01845C31.7396 2.16257 26.4803 -0.000274013 20.9997 2.6038e-08ZM20.9997 28.6C19.1999 28.6 17.4405 28.0663 15.944 27.0663C14.4475 26.0664 13.2811 24.6452 12.5924 22.9824C11.9036 21.3196 11.7234 19.4899 12.0745 17.7247C12.4257 15.9594 13.2924 14.338 14.565 13.0653C15.8377 11.7927 17.4591 10.926 19.2244 10.5748C20.9896 10.2237 22.8193 10.4039 24.4821 11.0927C26.1449 11.7814 27.5661 12.9478 28.5661 14.4443C29.566 15.9408 30.0997 17.7002 30.0997 19.5C30.0997 21.9134 29.1409 24.2281 27.4343 25.9346C25.7278 27.6412 23.4132 28.6 20.9997 28.6Z" fill="#3AD09A"/>
</svg>
